<svg width="26" height="26" viewBox="0 0 26 26" fill="none" xmlns="http://www.w3.org/2000/svg">
<path d="M24.3536 4.56927L24.7071 4.21571L24.3536 3.86216L22.1378 1.64645L21.7843 1.29289L21.4307 1.64645L13 10.0772L4.56927 1.64645L4.21571 1.29289L3.86216 1.64645L1.64645 3.86216L1.29289 4.21571L1.64645 4.56927L10.0772 13L1.64645 21.4307L1.29289 21.7843L1.64645 22.1378L3.86216 24.3536L4.21571 24.7071L4.56927 24.3536L13 15.9228L21.4307 24.3536L21.7843 24.7071L22.1378 24.3536L24.3536 22.1378L24.7071 21.7843L24.3536 21.4307L15.9228 13L24.3536 4.56927Z" fill="#444444" stroke="#444444"/>
</svg>
